<svg width="12.613281" height="12.613525" viewBox="0 0 12.6133 12.6135" fill="none" xmlns="http://www.w3.org/2000/svg" xmlns:xlink="http://www.w3.org/1999/xlink">
	<desc>
			Created with Pixso.
	</desc>
	<defs/>
	<path id="+" d="M0.41 10.19L10.19 0.41C10.75 -0.14 11.64 -0.14 12.19 0.41C12.75 0.96 12.75 1.86 12.19 2.41L2.41 12.19C1.86 12.75 0.96 12.75 0.41 12.19C-0.14 11.64 -0.14 10.75 0.41 10.19ZM0.41 2.41C-0.14 1.86 -0.14 0.96 0.41 0.41C0.96 -0.14 1.86 -0.14 2.41 0.41L12.19 10.19C12.75 10.75 12.75 11.64 12.19 12.19C11.64 12.75 10.75 12.75 10.19 12.19L0.41 2.41Z" fill="#5F5CF0" fill-opacity="1.000000" fill-rule="nonzero"/>
</svg>
